<?xml version="1.0" ?>
<svg 
height="256" 
viewBox="0 0 256 256" 
width="256" 
xmlns="http://www.w3.org/2000/svg">
<style
<title/>
<g id="protein-control-daily"><g>
    <path d="M238,168H205.65c13.25-17.67,14.29-49.02,1.86-69.43l14.15-14.34a11.489,11.489,0,1,0,3.75-20.31,13.4,13.4,0,0,0-2.75-6.26A10.563,10.563,0,0,0,214.25,54a11.626,11.626,0,0,0-7.67,20.25L194.31,84.84a36.728,36.728,0,0,0-16.28-5.5c-21.49-2.07-37.82,8.65-49.32,21.19-8.23-2.35-22.85-9.26-33.96-29.49C86.92,56.75,75.06,48.13,63.02,48c-.27,0-.55,0-.82.01h-.06A.615.615,0,0,0,62,48H51c-17.42,0-35,17.32-35,56,0,31.98,11.63,52.11,22.67,64H18a2.006,2.006,0,0,0-2,2,18.021,18.021,0,0,0,18,18h2.17A25.969,25.969,0,0,0,24,210v4a26.025,26.025,0,0,0,26,26H206a26.025,26.025,0,0,0,26-26v-4a25.969,25.969,0,0,0-12.17-22H222a18.027,18.027,0,0,0,18-18A2.006,2.006,0,0,0,238,168ZM214.25,58a6.625,6.625,0,0,1,5.09,1.94c2.07,2.2,2.35,5.84,2.31,6.68a2,2,0,0,0,3.02,1.94,7.5,7.5,0,1,1-1.65,11.55.265.265,0,0,0-.05-.06c-.89-1.04-1.8-5.19-1.86-6.29a2.015,2.015,0,0,0-3.03-1.82,13.388,13.388,0,0,1-7.41.16c-2.31-.88-3.92-3.59-3.92-6.6A7.509,7.509,0,0,1,214.25,58Zm-3.8,18.19a18.424,18.424,0,0,0,7.02.06,20.957,20.957,0,0,0,1.56,4.95L203.68,96.77l-.18.18-6.27,6.36a13.309,13.309,0,0,0-3.9-6.65,12.3,12.3,0,0,0-3.88-2.35l6.34-5.47ZM184.78,97.31h.02c.12.01.24.02.36.04h.04a9.789,9.789,0,0,1,5.46,2.29c1.86,1.67,2.95,4.31,3.25,7.83.37,4.17-.35,9.57-2.17,16.07-6.13,21.89-19.93,28.42-29.88,27.34-9.48-1.02-16.26-8.65-16.86-19-1.47-24.92,27.34-32.46,28.57-32.77a2.41,2.41,0,0,0,.25-.08,29,29,0,0,1,9.33-1.8A14.812,14.812,0,0,1,184.78,97.31Zm-7.14-13.98a32.829,32.829,0,0,1,13.49,4.25l-6.61,5.71a31.133,31.133,0,0,0-12.06,1.97c-2.35.64-33.06,9.55-31.46,36.86.73,12.36,8.94,21.5,20.43,22.74a23.055,23.055,0,0,0,2.51.13c11.2,0,25.33-7.79,31.65-30.37,1.79-6.4,2.59-11.87,2.37-16.36l6.65-6.74c11.72,20.15,9.91,50.9-4.13,66.48H83.07c-1.04-6.65,1.91-12.34,8.79-16.92l.45-.3a77.062,77.062,0,0,0,24.75-26.9,108.725,108.725,0,0,1,13.64-19.59C141.58,92.03,157.15,81.33,177.64,83.33ZM87.38,100.95a2,2,0,1,1,3.66,1.62c-.28.63-7.11,15.5-30.91,15.5h-.4a2,2,0,0,1,.02-4h.37C81.35,114.07,87.32,101.08,87.38,100.95Zm15.9,20.07c-.5.84-12.68,20.77-41.96,28.22a1.658,1.658,0,0,1-.49.07,2,2,0,0,1-.49-3.94c27.69-7.06,39.39-26.21,39.51-26.4a2,2,0,0,1,3.43,2.05Zm-9.75-8.83a2.005,2.005,0,0,1,3.25,2.35c-.5.68-12.41,16.79-37.29,17.56h-.06a2,2,0,0,1-.06-4C82.3,127.4,93.42,112.35,93.53,112.19ZM78.08,90.56a10.947,10.947,0,0,1-7.05,4.64,29.089,29.089,0,0,1-5,.55,11.64,11.64,0,0,1-2.83-.31c-2.34-.56-5.32-2.25-6.17-7.09-1.26-7.16,2.73-21.08,8.89-22.17,6.01-1.04,12.75,7.07,14.05,14.47A13.035,13.035,0,0,1,78.08,90.56ZM20,104c0-33.94,14.5-50.32,28.75-51.87C37.74,59.02,28,75.21,28,104c0,31.99,12.89,52.11,25.14,64H44.27C33.06,157.14,20,137.33,20,104ZM76,220V198H180v22H76Zm146-36H34a14.026,14.026,0,0,1-13.86-12H235.86A14.026,14.026,0,0,1,222,184Z"/><path d="M174,200H164a2.006,2.006,0,0,0-2,2v14a2.006,2.006,0,0,0,2,2h10a2.006,2.006,0,0,0,2-2V202A2.006,2.006,0,0,0,174,200Zm-2,14h-6V204h6Z"/>
    <circle cx="158" cy="216" r="2"/>
    <path d="M152,200H142a2.006,2.006,0,0,0-2,2v14a2.006,2.006,0,0,0,2,2h10a2.006,2.006,0,0,0,2-2V202A2.006,2.006,0,0,0,152,200Zm-2,14h-6V204h6Z"/>
    <path d="M136,200H126a2.006,2.006,0,0,0-2,2v14a2.006,2.006,0,0,0,2,2h10a2.006,2.006,0,0,0,2-2V202A2.006,2.006,0,0,0,136,200Zm-2,14h-6V204h6Z"/>
</g></g>
</svg>